<svg width="110" height="22" fill="none" xmlns="http://www.w3.org/2000/svg"><g opacity=".5" fill="#fff"><path d="M8.666 19.092h-1.12V17H1.425v2.098H.299L.293 16.08H.99c.367-.414.658-.969.873-1.664a9.84 9.84 0 00.41-2.297l.188-3.65h5.103v7.611h1.114l-.012 3.012zM2.273 16.08h4.16V9.395H3.546l-.123 2.507c-.05.98-.182 1.817-.393 2.508-.207.692-.459 1.248-.756 1.67zm11.672-5.42h1.084V17h-1.084v-4.623L11.021 17H9.938v-6.34h1.085v4.63l2.923-4.63zm6.31 1.735a.835.835 0 00-.339-.704c-.227-.175-.537-.263-.932-.263-.382 0-.703.1-.96.299-.255.199-.381.433-.381.703h-1.079c0-.551.23-1.002.692-1.354.46-.351 1.037-.527 1.728-.527.743 0 1.32.16 1.735.48.414.317.62.77.62 1.36 0 .285-.085.546-.257.785a1.755 1.755 0 01-.732.568c.738.25 1.107.742 1.107 1.477 0 .582-.225 1.043-.674 1.383-.449.34-1.049.51-1.799.51-.73 0-1.334-.178-1.81-.534-.473-.36-.71-.844-.71-1.453h1.079c0 .309.137.574.41.797.277.219.621.328 1.031.328.414 0 .748-.096 1.002-.287a.891.891 0 00.381-.744c0-.356-.107-.61-.322-.762-.211-.156-.541-.234-.99-.234H17.97v-.914h1.177c.739-.02 1.108-.325 1.108-.914zM26.778 17c-.062-.125-.113-.348-.152-.668-.504.523-1.105.785-1.805.785-.625 0-1.138-.176-1.54-.527a1.728 1.728 0 01-.598-1.348c0-.66.25-1.172.75-1.535.504-.367 1.21-.55 2.12-.55h1.055v-.499c0-.379-.113-.68-.34-.902-.226-.227-.56-.34-1.001-.34-.387 0-.711.098-.973.293-.262.195-.393.432-.393.709h-1.09c0-.316.112-.621.335-.914.226-.297.53-.531.914-.703.386-.172.81-.258 1.271-.258.73 0 1.303.184 1.717.55.414.364.629.866.644 1.507v2.918c0 .582.075 1.044.223 1.388V17h-1.137zm-1.799-.826c.34 0 .663-.088.967-.264.305-.176.526-.404.662-.685v-1.301h-.85c-1.327 0-1.991.389-1.991 1.166 0 .34.113.605.34.797.226.191.517.287.872.287zm8.514-5.514h1.084V17h-1.084v-4.623L30.568 17h-1.084v-6.34h1.084v4.63l2.924-4.63zm.293-2.308c0 .472-.162.853-.486 1.142-.32.285-.742.428-1.266.428-.523 0-.947-.145-1.271-.434-.325-.289-.487-.668-.487-1.136h.885c0 .273.074.488.223.644.148.152.365.229.65.229.274 0 .486-.077.639-.229.156-.152.234-.367.234-.644h.88zM41.496 17h-1.084v-2.707H37.5V17h-1.09v-6.34h1.09v2.748h2.912V10.66h1.084V17z"/><path fill-rule="evenodd" clip-rule="evenodd" d="M103.666 21.936h.994v-3.32l3.045 2.975a6.6 6.6 0 00.253.187c.071.048.141.091.214.13a.828.828 0 00.201.071c.072.015.145.022.217.022.148 0 .297-.025.436-.091a.993.993 0 00.32-.249c.092-.109.156-.236.202-.369.046-.148.069-.303.069-.454V17.72h-.996v3.311l-3.051-3.002c-.237-.232-.527-.408-.869-.408a.968.968 0 00-.385.082 1.373 1.373 0 00-.334.216 1.108 1.108 0 00-.229.313.837.837 0 00-.088.376v3.328h.001zM88.75 14.85h3.489V8.592l11.511 5.76c1.242.617 3.123.764 4.332 0 1.182-.744 1.535-2.033 1.535-3.359V.126H68.859c-.688 0-1.364.105-2.018.309a5.783 5.783 0 00-1.768.9c-.52.391-.94.871-1.262 1.429-.338.585-.483 1.229-.483 1.898 0 .642.132 1.253.415 1.827a4.602 4.602 0 001.113 1.447 5.038 5.038 0 001.602.945 5.31 5.31 0 001.885.34h14.406v2.178H60.903V0H57v14.852h3.904v-.002h20.471c.635 0 1.253-.115 1.851-.338a5.264 5.264 0 001.583-.937 4.592 4.592 0 001.1-1.419 3.935 3.935 0 00.414-1.803c0-.631-.127-1.23-.387-1.803a4.632 4.632 0 00-1.05-1.477 4.931 4.931 0 00-1.583-.996 5.231 5.231 0 00-1.973-.367H67.131V3.487h38.978v8.025L94.475 5.718c-2.697-1.342-5.725-.859-5.725 2.692v6.44zm-26.744 6.123h-3.977V18.69h3.977v2.283zm-4.986.963h4.575c.187 0 .368-.031.546-.097.168-.063.324-.153.459-.272.133-.117.238-.256.318-.416.08-.164.117-.342.117-.524v-1.613c0-.186-.035-.364-.115-.534a1.284 1.284 0 00-.313-.41 1.34 1.34 0 00-.451-.268 1.507 1.507 0 00-.545-.1h-4.592v4.234h.001zm16.175.019v-1.046H68.21v-.579h4.985v-1.015H68.21v-.616h4.985v-1.01h-4.497c-.198 0-.399.029-.587.092-.172.061-.33.146-.469.264a1.235 1.235 0 00-.429.986v1.575c0 .189.035.376.117.544.084.161.191.305.328.425.137.122.297.212.473.279.178.063.363.101.555.101h4.509zm10.44-3.26v-.957h-4.688c-.192 0-.387.029-.574.09-.18.055-.352.139-.504.254a1.352 1.352 0 00-.359.408 1.07 1.07 0 00-.137.541c0 .18.037.357.119.52.076.156.183.299.316.41.135.121.287.209.455.271.174.064.355.098.539.098h4.111v.625h-5.266v.98h4.871c.182 0 .357-.031.525-.096.168-.063.32-.151.452-.268.134-.113.235-.25.314-.403a1.11 1.11 0 00.117-.515 1.2 1.2 0 00-.11-.514 1.335 1.335 0 00-.297-.423 1.467 1.467 0 00-.453-.28 1.449 1.449 0 00-.561-.105H78.45v-.637h5.185v.001zm5.583-.994h-1.112v4.27h1.112v-4.27zm7.294 1.596v1.016h1.953v.597h-4.08v-2.22h5.104v-.988h-4.562c-.39 0-.816.066-1.137.308-.277.212-.398.501-.398.845v1.735c0 .198.037.394.127.571.088.162.202.299.347.413.149.115.317.2.495.255.188.061.385.09.584.09h2.924c.201 0 .398-.024.596-.078.184-.049.355-.127.514-.238a1.24 1.24 0 00.361-.404 1.17 1.17 0 00.135-.571v-1.329h-2.963v-.002z"/></g></svg>